<mxfile host="app.diagrams.net" modified="2024-07-07T12:19:05.691Z" agent="Mozilla/5.0 (Macintosh; Intel Mac OS X 10_15_7) AppleWebKit/537.36 (KHTML, like Gecko) Chrome/126.0.0.0 Safari/537.36" etag="gqop5XgVGkNHF24gzMPK" version="24.6.4" type="device">
  <diagram name="Page-1" id="tLoa7zmKvxzxmyTUx9XB">
    <mxGraphModel dx="1659" dy="924" grid="1" gridSize="10" guides="1" tooltips="1" connect="1" arrows="1" fold="1" page="1" pageScale="1" pageWidth="827" pageHeight="1169" math="0" shadow="0">
      <root>
        <mxCell id="0" />
        <mxCell id="1" parent="0" />
        <mxCell id="LzLmtiTo9BAewZlASwHk-1" value="" style="whiteSpace=wrap;html=1;aspect=fixed;fillColor=#ffe6cc;strokeColor=#d79b00;shadow=1;sketch=1;curveFitting=1;jiggle=2;" vertex="1" parent="1">
          <mxGeometry x="50" y="230" width="690" height="690" as="geometry" />
        </mxCell>
        <mxCell id="LzLmtiTo9BAewZlASwHk-4" value="Browser" style="swimlane;whiteSpace=wrap;html=1;fillColor=#e1d5e7;strokeColor=#9673a6;shadow=1;sketch=1;curveFitting=1;jiggle=2;" vertex="1" parent="1">
          <mxGeometry x="350" y="60" width="200" height="100" as="geometry" />
        </mxCell>
        <mxCell id="LzLmtiTo9BAewZlASwHk-5" value="Browser" style="swimlane;whiteSpace=wrap;html=1;fillColor=#e1d5e7;strokeColor=#9673a6;shadow=1;sketch=1;curveFitting=1;jiggle=2;" vertex="1" parent="1">
          <mxGeometry x="360" y="70" width="200" height="100" as="geometry" />
        </mxCell>
        <mxCell id="LzLmtiTo9BAewZlASwHk-6" value="Browser" style="swimlane;whiteSpace=wrap;html=1;fillColor=#e1d5e7;strokeColor=#9673a6;shadow=1;sketch=1;curveFitting=1;jiggle=2;" vertex="1" parent="1">
          <mxGeometry x="370" y="80" width="200" height="100" as="geometry" />
        </mxCell>
        <mxCell id="LzLmtiTo9BAewZlASwHk-12" value="&lt;font face=&quot;Courier New&quot; style=&quot;font-size: 25px;&quot;&gt;Nginx&lt;/font&gt;" style="rounded=0;whiteSpace=wrap;html=1;fillColor=#f5f5f5;strokeColor=#666666;shadow=1;sketch=1;curveFitting=1;jiggle=2;fontColor=#333333;" vertex="1" parent="1">
          <mxGeometry x="90" y="260" width="610" height="60" as="geometry" />
        </mxCell>
        <mxCell id="LzLmtiTo9BAewZlASwHk-13" value="" style="endArrow=classic;startArrow=classic;html=1;rounded=0;entryX=0.5;entryY=1;entryDx=0;entryDy=0;exitX=0.5;exitY=0;exitDx=0;exitDy=0;fillColor=#f8cecc;strokeColor=#b85450;shadow=1;sketch=1;curveFitting=1;jiggle=2;gradientColor=#ea6b66;" edge="1" parent="1" source="LzLmtiTo9BAewZlASwHk-12" target="LzLmtiTo9BAewZlASwHk-6">
          <mxGeometry width="50" height="50" relative="1" as="geometry">
            <mxPoint x="390" y="330" as="sourcePoint" />
            <mxPoint x="440" y="280" as="targetPoint" />
          </mxGeometry>
        </mxCell>
        <mxCell id="LzLmtiTo9BAewZlASwHk-15" value="" style="rounded=0;whiteSpace=wrap;html=1;fillColor=#bac8d3;strokeColor=#23445d;shadow=1;sketch=1;curveFitting=1;jiggle=2;strokeWidth=1;" vertex="1" parent="1">
          <mxGeometry x="90" y="390" width="420" height="500" as="geometry" />
        </mxCell>
        <mxCell id="LzLmtiTo9BAewZlASwHk-16" value="&lt;font face=&quot;Courier New&quot; style=&quot;font-size: 25px;&quot;&gt;Virtual Private Server&lt;/font&gt;" style="text;html=1;align=center;verticalAlign=middle;whiteSpace=wrap;rounded=0;fillColor=#ffe6cc;strokeColor=#d79b00;shadow=1;sketch=1;curveFitting=1;jiggle=2;" vertex="1" parent="1">
          <mxGeometry x="50" y="200" width="360" height="30" as="geometry" />
        </mxCell>
        <mxCell id="LzLmtiTo9BAewZlASwHk-17" value="&lt;font face=&quot;Courier New&quot; style=&quot;font-size: 25px;&quot;&gt;Docker Compose&lt;/font&gt;" style="text;html=1;align=center;verticalAlign=middle;whiteSpace=wrap;rounded=0;fillColor=#bac8d3;strokeColor=#23445d;shadow=1;sketch=1;curveFitting=1;jiggle=2;strokeWidth=1;" vertex="1" parent="1">
          <mxGeometry x="90" y="360" width="230" height="30" as="geometry" />
        </mxCell>
        <mxCell id="LzLmtiTo9BAewZlASwHk-19" value="&lt;font face=&quot;Courier New&quot; style=&quot;font-size: 25px;&quot;&gt;Docker&lt;/font&gt;" style="rounded=0;whiteSpace=wrap;html=1;fillColor=#cce5ff;strokeColor=#36393d;shadow=1;sketch=1;curveFitting=1;jiggle=2;gradientColor=none;" vertex="1" parent="1">
          <mxGeometry x="100" y="400" width="400" height="60" as="geometry" />
        </mxCell>
        <mxCell id="LzLmtiTo9BAewZlASwHk-20" value="&lt;font style=&quot;font-size: 20px;&quot; face=&quot;Courier New&quot;&gt;mautic_web&lt;/font&gt;" style="swimlane;horizontal=0;whiteSpace=wrap;html=1;fillColor=#d5e8d4;strokeColor=#82b366;shadow=1;sketch=1;curveFitting=1;jiggle=2;" vertex="1" parent="1">
          <mxGeometry x="150" y="500" width="110" height="150" as="geometry" />
        </mxCell>
        <mxCell id="LzLmtiTo9BAewZlASwHk-21" value="&lt;font style=&quot;font-size: 20px;&quot; face=&quot;Courier New&quot;&gt;mautic_cron&lt;/font&gt;" style="swimlane;horizontal=0;whiteSpace=wrap;html=1;fillColor=#d5e8d4;strokeColor=#82b366;shadow=1;sketch=1;curveFitting=1;jiggle=2;" vertex="1" parent="1">
          <mxGeometry x="150" y="700" width="110" height="150" as="geometry" />
        </mxCell>
        <mxCell id="LzLmtiTo9BAewZlASwHk-23" value="&lt;font face=&quot;Courier New&quot;&gt;mautic_worker&lt;/font&gt;" style="swimlane;horizontal=0;whiteSpace=wrap;html=1;fillColor=#d5e8d4;strokeColor=#82b366;shadow=1;sketch=1;curveFitting=1;jiggle=2;" vertex="1" parent="1">
          <mxGeometry x="295" y="690" width="150" height="150" as="geometry" />
        </mxCell>
        <mxCell id="LzLmtiTo9BAewZlASwHk-24" value="&lt;font face=&quot;Courier New&quot;&gt;mautic_worker&lt;/font&gt;" style="swimlane;horizontal=0;whiteSpace=wrap;html=1;fillColor=#d5e8d4;strokeColor=#82b366;shadow=1;sketch=1;curveFitting=1;jiggle=2;" vertex="1" parent="1">
          <mxGeometry x="305" y="700" width="150" height="150" as="geometry" />
        </mxCell>
        <mxCell id="LzLmtiTo9BAewZlASwHk-25" value="&lt;font style=&quot;font-size: 16px;&quot; face=&quot;Courier New&quot;&gt;mautic_worker&lt;/font&gt;" style="swimlane;horizontal=0;whiteSpace=wrap;html=1;fillColor=#d5e8d4;strokeColor=#82b366;shadow=1;sketch=1;curveFitting=1;jiggle=2;" vertex="1" parent="1">
          <mxGeometry x="315" y="710" width="150" height="150" as="geometry" />
        </mxCell>
        <mxCell id="LzLmtiTo9BAewZlASwHk-26" value="&lt;font face=&quot;Courier New&quot;&gt;db&lt;/font&gt;" style="swimlane;horizontal=0;whiteSpace=wrap;html=1;fillColor=#d5e8d4;strokeColor=#82b366;shadow=1;sketch=1;curveFitting=1;jiggle=2;" vertex="1" parent="1">
          <mxGeometry x="310" y="500" width="140" height="150" as="geometry" />
        </mxCell>
        <mxCell id="LzLmtiTo9BAewZlASwHk-27" value="&lt;font face=&quot;Courier New&quot;&gt;MySql&lt;/font&gt;" style="shape=cylinder3;whiteSpace=wrap;html=1;boundedLbl=1;backgroundOutline=1;size=15;fillColor=#d5e8d4;strokeColor=#82b366;shadow=1;sketch=1;curveFitting=1;jiggle=2;" vertex="1" parent="LzLmtiTo9BAewZlASwHk-26">
          <mxGeometry x="50" y="30" width="60" height="80" as="geometry" />
        </mxCell>
        <mxCell id="LzLmtiTo9BAewZlASwHk-28" value="" style="endArrow=classic;startArrow=classic;html=1;rounded=0;entryX=0.5;entryY=1;entryDx=0;entryDy=0;exitX=0.5;exitY=0;exitDx=0;exitDy=0;fillColor=#f8cecc;strokeColor=#b85450;shadow=1;sketch=1;curveFitting=1;jiggle=2;gradientColor=#ea6b66;" edge="1" parent="1" source="LzLmtiTo9BAewZlASwHk-19" target="LzLmtiTo9BAewZlASwHk-12">
          <mxGeometry width="50" height="50" relative="1" as="geometry">
            <mxPoint x="390" y="510" as="sourcePoint" />
            <mxPoint x="395" y="330" as="targetPoint" />
          </mxGeometry>
        </mxCell>
        <mxCell id="LzLmtiTo9BAewZlASwHk-29" value="" style="endArrow=classic;startArrow=classic;html=1;rounded=0;entryX=0.5;entryY=1;entryDx=0;entryDy=0;exitX=1;exitY=0.25;exitDx=0;exitDy=0;fillColor=#f8cecc;strokeColor=#b85450;shadow=1;sketch=1;curveFitting=1;jiggle=2;gradientColor=#ea6b66;" edge="1" parent="1" source="LzLmtiTo9BAewZlASwHk-20" target="LzLmtiTo9BAewZlASwHk-19">
          <mxGeometry width="50" height="50" relative="1" as="geometry">
            <mxPoint x="387.5" y="665" as="sourcePoint" />
            <mxPoint x="392.5" y="485" as="targetPoint" />
          </mxGeometry>
        </mxCell>
        <mxCell id="LzLmtiTo9BAewZlASwHk-30" value="" style="endArrow=classic;startArrow=classic;html=1;rounded=0;exitX=0;exitY=0.5;exitDx=0;exitDy=0;entryX=1;entryY=0.5;entryDx=0;entryDy=0;fillColor=#cce5ff;strokeColor=#36393d;shadow=1;sketch=1;curveFitting=1;jiggle=2;" edge="1" parent="1" source="LzLmtiTo9BAewZlASwHk-26" target="LzLmtiTo9BAewZlASwHk-20">
          <mxGeometry width="50" height="50" relative="1" as="geometry">
            <mxPoint x="392.5" y="690" as="sourcePoint" />
            <mxPoint x="397.5" y="510" as="targetPoint" />
          </mxGeometry>
        </mxCell>
        <mxCell id="LzLmtiTo9BAewZlASwHk-31" value="" style="endArrow=classic;startArrow=classic;html=1;rounded=0;exitX=0;exitY=0.75;exitDx=0;exitDy=0;entryX=1;entryY=0.5;entryDx=0;entryDy=0;fillColor=#cce5ff;strokeColor=#36393d;shadow=1;sketch=1;curveFitting=1;jiggle=2;" edge="1" parent="1" source="LzLmtiTo9BAewZlASwHk-26" target="LzLmtiTo9BAewZlASwHk-21">
          <mxGeometry width="50" height="50" relative="1" as="geometry">
            <mxPoint x="500" y="670" as="sourcePoint" />
            <mxPoint x="330" y="670" as="targetPoint" />
          </mxGeometry>
        </mxCell>
        <mxCell id="LzLmtiTo9BAewZlASwHk-32" value="" style="endArrow=classic;startArrow=classic;html=1;rounded=0;exitX=0.5;exitY=1;exitDx=0;exitDy=0;entryX=0.75;entryY=0;entryDx=0;entryDy=0;fillColor=#cce5ff;strokeColor=#36393d;shadow=1;sketch=1;curveFitting=1;jiggle=2;" edge="1" parent="1" source="LzLmtiTo9BAewZlASwHk-26" target="LzLmtiTo9BAewZlASwHk-25">
          <mxGeometry width="50" height="50" relative="1" as="geometry">
            <mxPoint x="480" y="595" as="sourcePoint" />
            <mxPoint x="310" y="595" as="targetPoint" />
          </mxGeometry>
        </mxCell>
        <mxCell id="LzLmtiTo9BAewZlASwHk-33" value="" style="endArrow=classic;startArrow=classic;html=1;rounded=0;exitX=0.5;exitY=1;exitDx=0;exitDy=0;entryX=0.5;entryY=0;entryDx=0;entryDy=0;fillColor=#cce5ff;strokeColor=#36393d;shadow=1;sketch=1;curveFitting=1;jiggle=2;" edge="1" parent="1" source="LzLmtiTo9BAewZlASwHk-26" target="LzLmtiTo9BAewZlASwHk-24">
          <mxGeometry width="50" height="50" relative="1" as="geometry">
            <mxPoint x="490" y="605" as="sourcePoint" />
            <mxPoint x="320" y="605" as="targetPoint" />
          </mxGeometry>
        </mxCell>
        <mxCell id="LzLmtiTo9BAewZlASwHk-34" value="" style="endArrow=classic;startArrow=classic;html=1;rounded=0;entryX=0.25;entryY=0;entryDx=0;entryDy=0;fillColor=#cce5ff;strokeColor=#36393d;shadow=1;sketch=1;curveFitting=1;jiggle=2;" edge="1" parent="1" target="LzLmtiTo9BAewZlASwHk-23">
          <mxGeometry width="50" height="50" relative="1" as="geometry">
            <mxPoint x="380" y="650" as="sourcePoint" />
            <mxPoint x="330" y="615" as="targetPoint" />
          </mxGeometry>
        </mxCell>
        <mxCell id="LzLmtiTo9BAewZlASwHk-37" value="&lt;ul style=&quot;font-size: 15px;&quot;&gt;&lt;li&gt;&lt;font style=&quot;font-size: 15px;&quot; face=&quot;Courier New&quot;&gt;cron&lt;/font&gt;&lt;/li&gt;&lt;ul&gt;&lt;li&gt;&lt;font style=&quot;font-size: 15px;&quot; face=&quot;Courier New&quot;&gt;mautic&lt;/font&gt;&lt;/li&gt;&lt;/ul&gt;&lt;li&gt;&lt;font style=&quot;font-size: 15px;&quot; face=&quot;Courier New&quot;&gt;mautic&lt;/font&gt;&lt;/li&gt;&lt;ul&gt;&lt;li&gt;&lt;font style=&quot;font-size: 15px;&quot; face=&quot;Courier New&quot;&gt;config&lt;/font&gt;&lt;/li&gt;&lt;ul&gt;&lt;li&gt;&lt;font style=&quot;font-size: 15px;&quot; face=&quot;Courier New&quot;&gt;local&lt;/font&gt;&lt;/li&gt;&lt;/ul&gt;&lt;/ul&gt;&lt;li&gt;&lt;font style=&quot;font-size: 15px;&quot; face=&quot;Courier New&quot;&gt;logs&lt;/font&gt;&lt;/li&gt;&lt;ul&gt;&lt;li&gt;&lt;font style=&quot;font-size: 15px;&quot; face=&quot;Courier New&quot;&gt;...&lt;/font&gt;&lt;/li&gt;&lt;/ul&gt;&lt;li&gt;&lt;font style=&quot;font-size: 15px;&quot; face=&quot;Courier New&quot;&gt;media&lt;/font&gt;&lt;/li&gt;&lt;ul&gt;&lt;li&gt;&lt;font style=&quot;font-size: 15px;&quot; face=&quot;Courier New&quot;&gt;files&lt;/font&gt;&lt;/li&gt;&lt;ul&gt;&lt;li&gt;&lt;font style=&quot;font-size: 15px;&quot; face=&quot;Courier New&quot;&gt;...&lt;/font&gt;&lt;/li&gt;&lt;/ul&gt;&lt;li&gt;&lt;font style=&quot;font-size: 15px;&quot; face=&quot;Courier New&quot;&gt;images&lt;/font&gt;&lt;/li&gt;&lt;ul&gt;&lt;li&gt;&lt;font style=&quot;font-size: 15px;&quot; face=&quot;Courier New&quot;&gt;...&lt;/font&gt;&lt;/li&gt;&lt;/ul&gt;&lt;/ul&gt;&lt;/ul&gt;" style="rounded=0;whiteSpace=wrap;html=1;fillColor=#fad7ac;strokeColor=#b46504;fillStyle=dots;align=left;" vertex="1" parent="1">
          <mxGeometry x="530" y="390" width="170" height="500" as="geometry" />
        </mxCell>
        <mxCell id="LzLmtiTo9BAewZlASwHk-38" value="&lt;font face=&quot;Courier New&quot; style=&quot;font-size: 25px;&quot;&gt;Volumes&lt;/font&gt;" style="text;html=1;align=center;verticalAlign=middle;whiteSpace=wrap;rounded=0;fillColor=#bac8d3;strokeColor=#23445d;shadow=1;sketch=1;curveFitting=1;jiggle=2;strokeWidth=1;" vertex="1" parent="1">
          <mxGeometry x="530" y="360" width="170" height="30" as="geometry" />
        </mxCell>
      </root>
    </mxGraphModel>
  </diagram>
</mxfile>
